<?xml version="1.0" encoding="UTF-8"?>
<!DOCTYPE svg PUBLIC "-//W3C//DTD SVG 1.1//EN" "http://www.w3.org/Graphics/SVG/1.1/DTD/svg11.dtd">
<svg xmlns="http://www.w3.org/2000/svg" version="1.1" width="384px" height="384px" style="shape-rendering:geometricPrecision; text-rendering:geometricPrecision; image-rendering:optimizeQuality; fill-rule:evenodd; clip-rule:evenodd" xmlns:xlink="http://www.w3.org/1999/xlink">
<g><path style="opacity:0.041" fill="#060202" d="M 310.5,68.5 C 326.26,68.7479 337.427,76.0812 344,90.5C 346.517,98.0335 345.517,105.034 341,111.5C 322.286,128.035 303.953,145.035 286,162.5C 285.219,163.729 284.719,165.062 284.5,166.5C 285.582,174.826 286.582,183.159 287.5,191.5C 293.176,191.666 298.843,191.499 304.5,191C 313.414,187.209 322.081,182.876 330.5,178C 342.362,173.894 353.695,174.894 364.5,181C 370.473,185.947 373.807,192.28 374.5,200C 374.717,206.083 373.884,212.249 372,218.5C 360.615,238.213 344.448,252.713 323.5,262C 290.434,275.592 256.101,280.259 220.5,276C 171.189,271.428 124.855,257.428 81.5,234C 56.1809,219.015 36.6809,198.515 23,172.5C 17.8043,161.384 14.6376,149.717 13.5,137.5C 15.711,112.792 29.0443,102.626 53.5,107C 59.8071,109.635 65.3071,113.468 70,118.5C 74.7179,126.883 80.5513,134.383 87.5,141C 91.0578,143.946 95.0578,146.113 99.5,147.5C 101.029,147.471 102.196,146.804 103,145.5C 111.383,128.922 122.55,114.422 136.5,102C 147.887,94.5209 160.22,92.5209 173.5,96C 179.281,98.0571 184.947,100.39 190.5,103C 195.328,106.581 200.328,109.915 205.5,113C 214.827,113.168 224.161,113.001 233.5,112.5C 240.753,112.348 247.919,113.014 255,114.5C 257.38,113.799 259.547,112.633 261.5,111C 275.532,97.2995 289.866,83.9661 304.5,71C 306.723,70.4338 308.723,69.6005 310.5,68.5 Z"/></g>
<g><path style="opacity:0.998" fill="#fafafa" d="M 327.5,86.5 C 330.747,90.257 333.414,94.4237 335.5,99C 333.652,102.013 331.318,104.513 328.5,106.5C 318.5,115.5 308.5,124.5 298.5,133.5C 296.025,132.313 295.025,130.313 295.5,127.5C 294.167,127.5 292.833,127.5 291.5,127.5C 290.833,124.833 290.167,122.167 289.5,119.5C 288.167,119.5 286.833,119.5 285.5,119.5C 285.799,117.396 285.466,115.396 284.5,113.5C 283.442,111.344 282.109,110.344 280.5,110.5C 291.302,99.8668 302.302,89.3668 313.5,79C 314.5,78.3333 315.5,78.3333 316.5,79C 320.322,81.3301 323.988,83.8301 327.5,86.5 Z"/></g>
<g><path style="opacity:0.157" fill="#323232" d="M 328.5,106.5 C 331.318,104.513 333.652,102.013 335.5,99C 333.414,94.4237 330.747,90.257 327.5,86.5C 332.216,88.8459 335.549,93.0126 337.5,99C 335.385,102.118 332.885,104.952 330,107.5C 329.617,106.944 329.117,106.611 328.5,106.5 Z"/></g>
<g><path style="opacity:0.149" fill="#240402" d="M 175.5,108.5 C 172.689,108.174 170.022,107.341 167.5,106C 163.167,105.333 158.833,105.333 154.5,106C 149.118,108.228 144.118,111.062 139.5,114.5C 139.762,112.436 140.929,111.103 143,110.5C 143.483,109.552 143.649,108.552 143.5,107.5C 147.775,107.243 151.608,105.909 155,103.5C 160.143,104.203 165.309,104.703 170.5,105C 172.973,105.22 174.64,106.386 175.5,108.5 Z"/></g>
<g><path style="opacity:1" fill="#c73a2f" d="M 175.5,108.5 C 184.507,113.316 193.174,118.816 201.5,125C 207.249,125.785 212.916,125.618 218.5,124.5C 230.345,122.65 242.011,123.316 253.5,126.5C 255.167,127.5 256.5,128.833 257.5,130.5C 256.833,131.5 256.167,132.5 255.5,133.5C 249.905,137.59 244.739,142.256 240,147.5C 236.028,157.278 232.195,167.111 228.5,177C 228.833,177.5 229.167,178 229.5,178.5C 240.456,174.696 251.456,170.863 262.5,167C 263.381,166.292 264.047,165.458 264.5,164.5C 266.573,162.42 268.907,160.754 271.5,159.5C 272.684,163.461 273.684,167.461 274.5,171.5C 274.5,174.833 274.5,178.167 274.5,181.5C 273.398,183.357 271.731,184.691 269.5,185.5C 262.291,187.636 254.958,189.136 247.5,190C 228.049,191.198 208.716,190.364 189.5,187.5C 178.936,183.565 168.27,179.565 157.5,175.5C 142.935,168.815 130.102,159.815 119,148.5C 119.158,145.821 119.658,143.154 120.5,140.5C 125.649,131.01 131.982,122.344 139.5,114.5C 144.118,111.062 149.118,108.228 154.5,106C 158.833,105.333 163.167,105.333 167.5,106C 170.022,107.341 172.689,108.174 175.5,108.5 Z"/></g>
<g><path style="opacity:1" fill="#c1382d" d="M 100.5,161.5 C 100.804,162.15 101.137,162.817 101.5,163.5C 104.167,164.167 106.833,164.833 109.5,165.5C 126.696,186.998 148.696,201.331 175.5,208.5C 196.335,214.408 217.669,216.408 239.5,214.5C 237.365,216.369 234.698,217.036 231.5,216.5C 231.5,217.5 231.5,218.5 231.5,219.5C 230.167,219.5 228.833,219.5 227.5,219.5C 227.5,220.833 227.5,222.167 227.5,223.5C 231.63,223.534 235.63,224.201 239.5,225.5C 239.5,227.5 239.5,229.5 239.5,231.5C 244.833,231.5 250.167,231.5 255.5,231.5C 255.5,234.167 255.5,236.833 255.5,239.5C 260.833,239.5 266.167,239.5 271.5,239.5C 271.5,247.167 271.5,254.833 271.5,262.5C 277.984,261.061 284.651,260.394 291.5,260.5C 283.11,262.805 274.444,264.305 265.5,265C 248.819,265.706 232.153,265.539 215.5,264.5C 212.375,263.521 209.042,263.187 205.5,263.5C 195.651,260.872 185.651,258.872 175.5,257.5C 174.833,257.5 174.167,257.5 173.5,257.5C 159.495,253.494 145.495,249.16 131.5,244.5C 109.753,236.962 89.7526,226.295 71.5,212.5C 66.5641,208.904 61.8974,204.904 57.5,200.5C 43.2657,186.048 33.099,169.048 27,149.5C 24.7182,141.022 25.0515,132.689 28,124.5C 40.2208,113.225 51.5542,114.225 62,127.5C 70.3388,144.01 83.1721,155.343 100.5,161.5 Z"/></g>
<g><path style="opacity:0.157" fill="#260907" d="M 253.5,126.5 C 242.011,123.316 230.345,122.65 218.5,124.5C 219.681,122.933 221.347,122.099 223.5,122C 230.5,121.333 237.5,121.333 244.5,122C 247.151,123.602 250.484,124.602 254.5,125C 253.944,125.383 253.611,125.883 253.5,126.5 Z"/></g>
<g><path style="opacity:0.999" fill="#eeeeee" d="M 280.5,110.5 C 282.109,110.344 283.442,111.344 284.5,113.5C 285.466,115.396 285.799,117.396 285.5,119.5C 286.833,119.5 288.167,119.5 289.5,119.5C 290.167,122.167 290.833,124.833 291.5,127.5C 292.833,127.5 294.167,127.5 295.5,127.5C 295.025,130.313 296.025,132.313 298.5,133.5C 289.5,142.167 280.5,150.833 271.5,159.5C 268.907,160.754 266.573,162.42 264.5,164.5C 263.022,164.762 261.689,164.429 260.5,163.5C 262.166,162.008 263.166,160.175 263.5,158C 260.61,154.999 258.277,151.499 256.5,147.5C 252.852,146.527 251.186,144.193 251.5,140.5C 255.451,139.568 256.784,137.235 255.5,133.5C 256.167,132.5 256.833,131.5 257.5,130.5C 265.167,123.833 272.833,117.167 280.5,110.5 Z"/></g>
<g><path style="opacity:1" fill="#e5e0df" d="M 255.5,133.5 C 256.784,137.235 255.451,139.568 251.5,140.5C 251.186,144.193 252.852,146.527 256.5,147.5C 258.277,151.499 260.61,154.999 263.5,158C 263.166,160.175 262.166,162.008 260.5,163.5C 261.689,164.429 263.022,164.762 264.5,164.5C 264.047,165.458 263.381,166.292 262.5,167C 251.456,170.863 240.456,174.696 229.5,178.5C 229.167,178 228.833,177.5 228.5,177C 232.195,167.111 236.028,157.278 240,147.5C 244.739,142.256 249.905,137.59 255.5,133.5 Z"/></g>
<g><path style="opacity:1" fill="#8d2820" d="M 120.5,140.5 C 119.658,143.154 119.158,145.821 119,148.5C 130.102,159.815 142.935,168.815 157.5,175.5C 168.27,179.565 178.936,183.565 189.5,187.5C 183.989,186.265 177.989,186.265 171.5,187.5C 171.5,186.5 171.5,185.5 171.5,184.5C 174.263,183.545 173.263,183.378 168.5,184C 168,184.5 167.5,185 167,185.5C 167.135,187.425 167.302,189.425 167.5,191.5C 168.833,191.5 170.167,191.5 171.5,191.5C 171.337,193.857 171.503,196.19 172,198.5C 173,197.167 174,197.167 175,198.5C 175.494,200.134 175.66,201.801 175.5,203.5C 174.178,203.67 173.011,203.337 172,202.5C 171.691,203.766 171.191,204.933 170.5,206C 172.653,206.099 174.319,206.933 175.5,208.5C 148.696,201.331 126.696,186.998 109.5,165.5C 106.833,164.833 104.167,164.167 101.5,163.5C 101.137,162.817 100.804,162.15 100.5,161.5C 102.55,161.961 104.55,162.628 106.5,163.5C 107.086,163.291 107.586,162.957 108,162.5C 111.407,154.681 115.574,147.347 120.5,140.5 Z"/></g>
<g><path style="opacity:0.17" fill="#200301" d="M 279.5,202.5 C 278.167,202.5 276.833,202.5 275.5,202.5C 275.825,195.313 275.491,188.313 274.5,181.5C 274.5,178.167 274.5,174.833 274.5,171.5C 275.15,171.196 275.817,170.863 276.5,170.5C 276.833,172.167 277.167,173.833 277.5,175.5C 276.668,183.813 276.334,192.146 276.5,200.5C 278.179,200.285 279.179,200.952 279.5,202.5 Z"/></g>
<g><path style="opacity:0.145" fill="#340402" d="M 355.5,188.5 C 350.692,186.758 345.692,186.091 340.5,186.5C 340.389,185.883 340.056,185.383 339.5,185C 343.5,184.333 347.5,184.333 351.5,185C 353.319,185.74 354.652,186.907 355.5,188.5 Z"/></g>
<g><path style="opacity:1" fill="#c83a2f" d="M 340.5,186.5 C 345.692,186.091 350.692,186.758 355.5,188.5C 357.5,189.833 359.167,191.5 360.5,193.5C 364.389,201.106 364.389,208.773 360.5,216.5C 343.48,238.674 321.48,253.34 294.5,260.5C 293.5,260.5 292.5,260.5 291.5,260.5C 284.651,260.394 277.984,261.061 271.5,262.5C 271.5,254.833 271.5,247.167 271.5,239.5C 266.167,239.5 260.833,239.5 255.5,239.5C 255.5,236.833 255.5,234.167 255.5,231.5C 250.167,231.5 244.833,231.5 239.5,231.5C 239.5,229.5 239.5,227.5 239.5,225.5C 235.63,224.201 231.63,223.534 227.5,223.5C 227.5,222.167 227.5,220.833 227.5,219.5C 228.833,219.5 230.167,219.5 231.5,219.5C 231.5,218.5 231.5,217.5 231.5,216.5C 234.698,217.036 237.365,216.369 239.5,214.5C 250.387,211.939 261.054,208.439 271.5,204C 274.146,203.503 276.813,203.336 279.5,203.5C 300.198,206.246 318.531,201.079 334.5,188C 336.586,187.685 338.586,187.185 340.5,186.5 Z"/></g>
<g><path style="opacity:1" fill="#7f251d" d="M 274.5,181.5 C 275.491,188.313 275.825,195.313 275.5,202.5C 276.833,202.5 278.167,202.5 279.5,202.5C 279.5,202.833 279.5,203.167 279.5,203.5C 276.813,203.336 274.146,203.503 271.5,204C 261.054,208.439 250.387,211.939 239.5,214.5C 217.669,216.408 196.335,214.408 175.5,208.5C 174.319,206.933 172.653,206.099 170.5,206C 171.191,204.933 171.691,203.766 172,202.5C 173.011,203.337 174.178,203.67 175.5,203.5C 175.66,201.801 175.494,200.134 175,198.5C 174,197.167 173,197.167 172,198.5C 171.503,196.19 171.337,193.857 171.5,191.5C 170.167,191.5 168.833,191.5 167.5,191.5C 167.302,189.425 167.135,187.425 167,185.5C 167.5,185 168,184.5 168.5,184C 173.263,183.378 174.263,183.545 171.5,184.5C 171.5,185.5 171.5,186.5 171.5,187.5C 177.989,186.265 183.989,186.265 189.5,187.5C 208.716,190.364 228.049,191.198 247.5,190C 254.958,189.136 262.291,187.636 269.5,185.5C 271.731,184.691 273.398,183.357 274.5,181.5 Z"/></g>
<g><path style="opacity:0.152" fill="#270403" d="M 360.5,193.5 C 361.5,193.5 362.5,193.5 363.5,193.5C 365.841,199.75 366.007,206.084 364,212.5C 363.26,214.319 362.093,215.652 360.5,216.5C 364.389,208.773 364.389,201.106 360.5,193.5 Z"/></g>
<g><path style="opacity:0.176" fill="#280803" d="M 57.5,200.5 C 61.8974,204.904 66.5641,208.904 71.5,212.5C 70.448,212.649 69.448,212.483 68.5,212C 63.8058,208.814 60.1391,204.981 57.5,200.5 Z"/></g>
<g><path style="opacity:0.157" fill="#260704" d="M 131.5,244.5 C 145.495,249.16 159.495,253.494 173.5,257.5C 173.083,258.124 172.416,258.457 171.5,258.5C 163.985,256.096 156.318,254.263 148.5,253C 142.414,250.602 136.748,247.769 131.5,244.5 Z"/></g>
<g><path style="opacity:0.004" fill="#000000" d="M 28.5,249.5 C 29.8333,250.167 29.8333,250.167 28.5,249.5 Z"/></g>
<g><path style="opacity:0.004" fill="#000000" d="M 24.5,261.5 C 25.8333,262.167 25.8333,262.167 24.5,261.5 Z"/></g>
<g><path style="opacity:0.165" fill="#230805" d="M 175.5,257.5 C 185.651,258.872 195.651,260.872 205.5,263.5C 200.303,263.578 194.97,263.912 189.5,264.5C 185.946,261.557 181.779,259.89 177,259.5C 175.97,259.164 175.47,258.497 175.5,257.5 Z"/></g>
<g><path style="opacity:0.233" fill="#250706" d="M 291.5,260.5 C 292.5,260.5 293.5,260.5 294.5,260.5C 292.731,262.397 290.398,263.564 287.5,264C 284.628,264.315 281.795,264.815 279,265.5C 278,265.167 277,264.833 276,264.5C 271.42,266.561 266.587,267.561 261.5,267.5C 251.165,266.2 240.832,266.2 230.5,267.5C 225.038,267.48 220.038,266.48 215.5,264.5C 232.153,265.539 248.819,265.706 265.5,265C 274.444,264.305 283.11,262.805 291.5,260.5 Z"/></g>
<g><path style="opacity:0.004" fill="#030000" d="M 20.5,278.5 C 21.525,278.897 21.6917,279.563 21,280.5C 20.5357,279.906 20.369,279.239 20.5,278.5 Z"/></g>
<g><path style="opacity:0.004" fill="#ce4e4b" d="M 19.5,286.5 C 20.8333,287.167 20.8333,287.167 19.5,286.5 Z"/></g>
<g><path style="opacity:0.004" fill="#000000" d="M 18.5,295.5 C 19.8333,296.167 19.8333,296.167 18.5,295.5 Z"/></g>
<g><path style="opacity:0.004" fill="#000000" d="M 307.5,310.5 C 307.897,309.475 308.563,309.308 309.5,310C 308.906,310.464 308.239,310.631 307.5,310.5 Z"/></g>
<g><path style="opacity:0.004" fill="#000000" d="M 307.5,313.5 C 308.833,314.167 308.833,314.167 307.5,313.5 Z"/></g>
<g><path style="opacity:0.004" fill="#000000" d="M 305.5,327.5 C 305.897,326.475 306.563,326.308 307.5,327C 306.906,327.464 306.239,327.631 305.5,327.5 Z"/></g>
<g><path style="opacity:0.004" fill="#000000" d="M 299.5,351.5 C 300.833,352.167 300.833,352.167 299.5,351.5 Z"/></g>
</svg>
